<svg xmlns="http://www.w3.org/2000/svg" width="880" height="420" viewBox="0 0 880 420" role="img" aria-label="Mean PSNR vs SNR">
<rect width="100%" height="100%" fill="#ffffff"/>
<text x="440.0" y="28" text-anchor="middle" font-size="20" font-family="sans-serif" fill="#1f2937">Mean PSNR vs SNR</text>
<line x1="72" y1="356.00" x2="856" y2="356.00" stroke="#e5e7eb" stroke-width="1"/>
<text x="62" y="360.00" text-anchor="end" font-size="12" font-family="sans-serif" fill="#4b5563">28.527</text>
<line x1="72" y1="281.00" x2="856" y2="281.00" stroke="#e5e7eb" stroke-width="1"/>
<text x="62" y="285.00" text-anchor="end" font-size="12" font-family="sans-serif" fill="#4b5563">30.767</text>
<line x1="72" y1="206.00" x2="856" y2="206.00" stroke="#e5e7eb" stroke-width="1"/>
<text x="62" y="210.00" text-anchor="end" font-size="12" font-family="sans-serif" fill="#4b5563">33.007</text>
<line x1="72" y1="131.00" x2="856" y2="131.00" stroke="#e5e7eb" stroke-width="1"/>
<text x="62" y="135.00" text-anchor="end" font-size="12" font-family="sans-serif" fill="#4b5563">35.247</text>
<line x1="72" y1="56.00" x2="856" y2="56.00" stroke="#e5e7eb" stroke-width="1"/>
<text x="62" y="60.00" text-anchor="end" font-size="12" font-family="sans-serif" fill="#4b5563">37.487</text>
<line x1="72.00" y1="56" x2="72.00" y2="356" stroke="#f3f4f6" stroke-width="1"/>
<text x="72.00" y="380" text-anchor="middle" font-size="12" font-family="sans-serif" fill="#4b5563">1</text>
<line x1="268.00" y1="56" x2="268.00" y2="356" stroke="#f3f4f6" stroke-width="1"/>
<text x="268.00" y="380" text-anchor="middle" font-size="12" font-family="sans-serif" fill="#4b5563">4</text>
<line x1="464.00" y1="56" x2="464.00" y2="356" stroke="#f3f4f6" stroke-width="1"/>
<text x="464.00" y="380" text-anchor="middle" font-size="12" font-family="sans-serif" fill="#4b5563">7</text>
<line x1="660.00" y1="56" x2="660.00" y2="356" stroke="#f3f4f6" stroke-width="1"/>
<text x="660.00" y="380" text-anchor="middle" font-size="12" font-family="sans-serif" fill="#4b5563">10</text>
<line x1="856.00" y1="56" x2="856.00" y2="356" stroke="#f3f4f6" stroke-width="1"/>
<text x="856.00" y="380" text-anchor="middle" font-size="12" font-family="sans-serif" fill="#4b5563">13</text>
<line x1="72" y1="356" x2="856" y2="356" stroke="#111827" stroke-width="1.5"/>
<line x1="72" y1="56" x2="72" y2="356" stroke="#111827" stroke-width="1.5"/>
<text x="440.0" y="402" text-anchor="middle" font-size="13" font-family="sans-serif" fill="#111827">SNR (dB)</text>
<text x="20" y="210.0" text-anchor="middle" font-size="13" font-family="sans-serif" fill="#111827" transform="rotate(-90 20 210.0)">PSNR (dB)</text>
<line x1="676" y1="44" x2="694" y2="44" stroke="#059669" stroke-width="3"/>
<text x="700" y="48" font-size="12" font-family="sans-serif" fill="#111827">mean_psnr</text>
<polyline fill="none" stroke="#059669" stroke-width="3" points="72.00,335.31 268.00,246.27 464.00,172.15 660.00,117.04 856.00,76.69" stroke-linecap="round" stroke-linejoin="round"/>
<circle cx="72.00" cy="335.31" r="4" fill="#059669"/>
<text x="72.00" y="325.31" text-anchor="middle" font-size="11" font-family="sans-serif" fill="#059669">29.15</text>
<circle cx="268.00" cy="246.27" r="4" fill="#059669"/>
<text x="268.00" y="236.27" text-anchor="middle" font-size="11" font-family="sans-serif" fill="#059669">31.80</text>
<circle cx="464.00" cy="172.15" r="4" fill="#059669"/>
<text x="464.00" y="162.15" text-anchor="middle" font-size="11" font-family="sans-serif" fill="#059669">34.02</text>
<circle cx="660.00" cy="117.04" r="4" fill="#059669"/>
<text x="660.00" y="107.04" text-anchor="middle" font-size="11" font-family="sans-serif" fill="#059669">35.66</text>
<circle cx="856.00" cy="76.69" r="4" fill="#059669"/>
<text x="856.00" y="66.69" text-anchor="middle" font-size="11" font-family="sans-serif" fill="#059669">36.87</text>
</svg>