<svg xmlns="http://www.w3.org/2000/svg" viewBox="0 0 1440 780" fill="none">
  <defs>
    <linearGradient id="gridGlow" x1="720" y1="0" x2="720" y2="780" gradientUnits="userSpaceOnUse">
      <stop offset="0" stop-color="#7AE4FF" stop-opacity="0.22"/>
      <stop offset="1" stop-color="#7AE4FF" stop-opacity="0.04"/>
    </linearGradient>
    <linearGradient id="landGlow" x1="720" y1="48" x2="720" y2="702" gradientUnits="userSpaceOnUse">
      <stop offset="0" stop-color="#95E8FF" stop-opacity="0.44"/>
      <stop offset="0.52" stop-color="#74C7E0" stop-opacity="0.24"/>
      <stop offset="1" stop-color="#2C5C79" stop-opacity="0.2"/>
    </linearGradient>
    <radialGradient id="halo" cx="0" cy="0" r="1" gradientUnits="userSpaceOnUse" gradientTransform="translate(892 312) rotate(108.3) scale(356 614)">
      <stop offset="0" stop-color="#7AE4FF" stop-opacity="0.22"/>
      <stop offset="1" stop-color="#7AE4FF" stop-opacity="0"/>
    </radialGradient>
  </defs>

  <ellipse cx="892" cy="312" rx="356" ry="614" fill="url(#halo)"/>

  <g stroke="url(#gridGlow)" stroke-linecap="round">
    <path d="M72 130h1296" stroke-width="1.4" stroke-opacity="0.3"/>
    <path d="M72 260h1296" stroke-width="1.2" stroke-opacity="0.24"/>
    <path d="M72 390h1296" stroke-width="1.8" stroke-opacity="0.36"/>
    <path d="M72 520h1296" stroke-width="1.2" stroke-opacity="0.24"/>
    <path d="M72 650h1296" stroke-width="1.4" stroke-opacity="0.3"/>
    <path d="M240 64v652" stroke-width="1.1" stroke-opacity="0.22"/>
    <path d="M480 64v652" stroke-width="1.1" stroke-opacity="0.22"/>
    <path d="M720 64v652" stroke-width="1.6" stroke-opacity="0.32"/>
    <path d="M960 64v652" stroke-width="1.1" stroke-opacity="0.22"/>
    <path d="M1200 64v652" stroke-width="1.1" stroke-opacity="0.22"/>
  </g>

  <g fill="url(#landGlow)" stroke="#A5EEFF" stroke-opacity="0.34" stroke-width="1.5">
    <polygon points="48.0,78.0 96.0,99.7 124.0,130.0 156.0,138.7 192.0,164.7 224.0,182.0 232.0,216.7 252.0,251.3 280.0,286.0 312.0,303.3 344.0,312.0 376.0,307.7 400.0,286.0 404.0,255.7 416.0,216.7 436.0,190.7 468.0,164.7 488.0,130.0 456.0,99.7 392.0,78.0 312.0,60.7 224.0,65.0 136.0,69.3"/>
    <polygon points="496.0,34.7 584.0,52.0 624.0,78.0 608.0,112.7 552.0,130.0 496.0,121.3 464.0,86.7 480.0,52.0"/>
    <polygon points="396.0,338.0 424.0,359.7 444.0,390.0 464.0,433.3 476.0,485.3 480.0,537.3 464.0,593.7 432.0,628.3 408.0,615.3 400.0,554.7 404.0,485.3 412.0,424.7"/>
    <polygon points="676.0,234.0 696.0,203.7 728.0,182.0 776.0,156.0 840.0,130.0 912.0,112.7 984.0,99.7 1072.0,91.0 1160.0,86.7 1232.0,99.7 1296.0,125.7 1352.0,147.3 1400.0,186.3 1400.0,216.7 1360.0,247.0 1316.0,273.0 1264.0,299.0 1216.0,290.3 1168.0,312.0 1128.0,346.7 1100.0,364.0 1072.0,351.0 1048.0,312.0 1016.0,294.7 976.0,273.0 936.0,255.7 896.0,255.7 856.0,229.7 824.0,199.3 784.0,190.7 752.0,199.3 720.0,216.7"/>
    <polygon points="988.0,286.0 1028.0,268.7 1068.0,294.7 1052.0,346.7 1024.0,359.7 1000.0,338.0"/>
    <polygon points="1100.0,355.3 1144.0,368.3 1184.0,390.0 1216.0,411.7 1232.0,381.3 1208.0,338.0 1168.0,325.0 1120.0,333.7"/>
    <polygon points="1232.0,255.7 1276.0,238.3 1300.0,208.0 1284.0,190.7 1248.0,208.0"/>
    <polygon points="652.0,229.7 728.0,234.0 792.0,242.7 848.0,255.7 888.0,303.3 912.0,351.0 900.0,420.3 880.0,485.3 852.0,537.3 800.0,541.7 760.0,498.3 728.0,433.3 700.0,359.7 680.0,294.7"/>
    <polygon points="1168.0,437.7 1248.0,433.3 1328.0,468.0 1336.0,520.0 1304.0,559.0 1248.0,572.0 1192.0,546.0 1168.0,494.0"/>
  </g>

  <g stroke="#F6C56A" stroke-width="1.4" stroke-opacity="0.22" stroke-linecap="round">
    <path d="M196 112c120 86 290 136 430 138 132 2 246-38 366-112"/>
    <path d="M280 592c116-84 224-128 352-136 146-8 298 28 486 128"/>
  </g>
</svg>
